<?xml version="1.0" standalone="no"?>
<!DOCTYPE svg PUBLIC "-//W3C//DTD SVG 20010904//EN"
 "http://www.w3.org/TR/2001/REC-SVG-20010904/DTD/svg10.dtd">
<svg version="1.0" xmlns="http://www.w3.org/2000/svg"
 width="410.000000pt" height="454.000000pt" viewBox="0 0 410.000000 454.000000"
 preserveAspectRatio="xMidYMid meet">
<metadata>
Created by potrace 1.13, written by Peter Selinger 2001-2015
</metadata>
<g transform="translate(0.000000,454.000000) scale(0.100000,-0.100000)"
fill="#000000" stroke="none">
<path d="M102 2273 l3 -2168 1943 -3 1942 -2 -2 2167 -3 2168 -1943 3 -1942 2
2 -2167z m428 1917 l0 -230 -205 0 -205 0 0 230 0 230 205 0 205 0 0 -230z
m430 0 l0 -230 -205 0 -205 0 0 230 0 230 205 0 205 0 0 -230z m430 0 l0 -230
-205 0 -205 0 0 230 0 230 205 0 205 0 0 -230z m430 0 l0 -230 -205 0 -205 0
0 230 0 230 205 0 205 0 0 -230z m430 0 l0 -230 -205 0 -205 0 0 230 0 230
205 0 205 0 0 -230z m430 0 l0 -230 -205 0 -205 0 0 230 0 230 205 0 205 0 0
-230z m430 0 l0 -230 -205 0 -205 0 0 230 0 230 205 0 205 0 0 -230z m430 0
l0 -230 -205 0 -205 0 0 230 0 230 205 0 205 0 0 -230z m430 0 l0 -230 -205 0
-205 0 0 230 0 230 205 0 205 0 0 -230z m-3440 -480 l0 -230 -205 0 -205 0 0
230 0 230 205 0 205 0 0 -230z m430 0 l0 -230 -205 0 -205 0 0 230 0 230 205
0 205 0 0 -230z m430 0 l0 -230 -205 0 -205 0 0 230 0 230 205 0 205 0 0 -230z
m430 0 l0 -230 -205 0 -205 0 0 230 0 230 205 0 205 0 0 -230z m430 0 l0 -230
-205 0 -205 0 0 230 0 230 205 0 205 0 0 -230z m430 0 l0 -230 -205 0 -205 0
0 230 0 230 205 0 205 0 0 -230z m430 0 l0 -230 -205 0 -205 0 0 230 0 230
205 0 205 0 0 -230z m430 0 l0 -230 -205 0 -205 0 0 230 0 230 205 0 205 0 0
-230z m430 0 l0 -230 -205 0 -205 0 0 230 0 230 205 0 205 0 0 -230z m-3440
-480 l0 -230 -205 0 -205 0 0 230 0 230 205 0 205 0 0 -230z m430 0 l0 -230
-205 0 -205 0 0 230 0 230 205 0 205 0 0 -230z m430 12 c0 -156 -3 -221 -12
-230 -9 -9 -68 -12 -205 -12 l-193 0 0 230 0 230 205 0 205 0 0 -218z m430
-12 l0 -230 -193 0 c-137 0 -196 3 -205 12 -9 9 -12 74 -12 230 l0 218 205 0
205 0 0 -230z m430 0 l0 -230 -205 0 -205 0 0 230 0 230 205 0 205 0 0 -230z
m430 12 c0 -156 -3 -221 -12 -230 -9 -9 -68 -12 -205 -12 l-193 0 0 230 0 230
205 0 205 0 0 -218z m430 -12 l0 -230 -193 0 c-137 0 -196 3 -205 12 -9 9 -12
74 -12 230 l0 218 205 0 205 0 0 -230z m430 0 l0 -230 -205 0 -205 0 0 230 0
230 205 0 205 0 0 -230z m430 0 l0 -230 -205 0 -205 0 0 230 0 230 205 0 205
0 0 -230z m-3440 -480 l0 -230 -205 0 -205 0 0 230 0 230 205 0 205 0 0 -230z
m430 0 l0 -230 -205 0 -205 0 0 230 0 230 205 0 205 0 0 -230z m418 218 c9 -9
12 -74 12 -230 l0 -218 -205 0 -205 0 0 230 0 230 193 0 c137 0 196 -3 205
-12z m442 -218 l0 -230 -205 0 -205 0 0 218 c0 156 3 221 12 230 9 9 68 12
205 12 l193 0 0 -230z m430 0 l0 -230 -205 0 -205 0 0 230 0 230 205 0 205 0
0 -230z m418 218 c9 -9 12 -74 12 -230 l0 -218 -205 0 -205 0 0 230 0 230 193
0 c137 0 196 -3 205 -12z m442 -218 l0 -230 -205 0 -205 0 0 218 c0 156 3 221
12 230 9 9 68 12 205 12 l193 0 0 -230z m430 0 l0 -230 -205 0 -205 0 0 230 0
230 205 0 205 0 0 -230z m430 0 l0 -230 -205 0 -205 0 0 230 0 230 205 0 205
0 0 -230z m-3440 -480 l0 -230 -205 0 -205 0 0 230 0 230 205 0 205 0 0 -230z
m430 0 l0 -230 -205 0 -205 0 0 230 0 230 205 0 205 0 0 -230z m430 0 l0 -230
-205 0 -205 0 0 230 0 230 205 0 205 0 0 -230z m430 0 l0 -230 -205 0 -205 0
0 230 0 230 205 0 205 0 0 -230z m430 0 l0 -230 -205 0 -205 0 0 230 0 230
205 0 205 0 0 -230z m430 0 l0 -230 -205 0 -205 0 0 230 0 230 205 0 205 0 0
-230z m430 0 l0 -230 -205 0 -205 0 0 230 0 230 205 0 205 0 0 -230z m430 0
l0 -230 -205 0 -205 0 0 230 0 230 205 0 205 0 0 -230z m430 0 l0 -230 -205 0
-205 0 0 230 0 230 205 0 205 0 0 -230z m-3440 -480 l0 -230 -205 0 -205 0 0
230 0 230 205 0 205 0 0 -230z m430 0 l0 -230 -205 0 -205 0 0 230 0 230 205
0 205 0 0 -230z m430 12 c0 -156 -3 -221 -12 -230 -9 -9 -68 -12 -205 -12
l-193 0 0 230 0 230 205 0 205 0 0 -218z m430 -12 l0 -230 -193 0 c-137 0
-196 3 -205 12 -9 9 -12 74 -12 230 l0 218 205 0 205 0 0 -230z m430 0 l0
-230 -205 0 -205 0 0 230 0 230 205 0 205 0 0 -230z m430 12 c0 -156 -3 -221
-12 -230 -9 -9 -68 -12 -205 -12 l-193 0 0 230 0 230 205 0 205 0 0 -218z
m430 -12 l0 -230 -193 0 c-137 0 -196 3 -205 12 -9 9 -12 74 -12 230 l0 218
205 0 205 0 0 -230z m430 0 l0 -230 -205 0 -205 0 0 230 0 230 205 0 205 0 0
-230z m430 0 l0 -230 -205 0 -205 0 0 230 0 230 205 0 205 0 0 -230z m-3440
-480 l0 -230 -205 0 -205 0 0 230 0 230 205 0 205 0 0 -230z m430 0 l0 -230
-205 0 -205 0 0 230 0 230 205 0 205 0 0 -230z m418 218 c9 -9 12 -74 12 -230
l0 -218 -205 0 -205 0 0 230 0 230 193 0 c137 0 196 -3 205 -12z m442 -218 l0
-230 -205 0 -205 0 0 218 c0 156 3 221 12 230 9 9 68 12 205 12 l193 0 0 -230z
m430 0 l0 -230 -205 0 -205 0 0 230 0 230 205 0 205 0 0 -230z m418 218 c9 -9
12 -74 12 -230 l0 -218 -205 0 -205 0 0 230 0 230 193 0 c137 0 196 -3 205
-12z m442 -218 l0 -230 -205 0 -205 0 0 218 c0 156 3 221 12 230 9 9 68 12
205 12 l193 0 0 -230z m430 0 l0 -230 -205 0 -205 0 0 230 0 230 205 0 205 0
0 -230z m430 0 l0 -230 -205 0 -205 0 0 230 0 230 205 0 205 0 0 -230z m-3440
-480 l0 -230 -205 0 -205 0 0 230 0 230 205 0 205 0 0 -230z m430 0 l0 -230
-205 0 -205 0 0 230 0 230 205 0 205 0 0 -230z m430 0 l0 -230 -205 0 -205 0
0 230 0 230 205 0 205 0 0 -230z m430 0 l0 -230 -205 0 -205 0 0 230 0 230
205 0 205 0 0 -230z m430 0 l0 -230 -205 0 -205 0 0 230 0 230 205 0 205 0 0
-230z m430 0 l0 -230 -205 0 -205 0 0 230 0 230 205 0 205 0 0 -230z m430 0
l0 -230 -205 0 -205 0 0 230 0 230 205 0 205 0 0 -230z m430 0 l0 -230 -205 0
-205 0 0 230 0 230 205 0 205 0 0 -230z m430 0 l0 -230 -205 0 -205 0 0 230 0
230 205 0 205 0 0 -230z m-3440 -480 l0 -230 -205 0 -205 0 0 230 0 230 205 0
205 0 0 -230z m430 0 l0 -230 -205 0 -205 0 0 230 0 230 205 0 205 0 0 -230z
m430 0 l0 -230 -205 0 -205 0 0 230 0 230 205 0 205 0 0 -230z m430 0 l0 -230
-205 0 -205 0 0 230 0 230 205 0 205 0 0 -230z m430 0 l0 -230 -205 0 -205 0
0 230 0 230 205 0 205 0 0 -230z m430 0 l0 -230 -205 0 -205 0 0 230 0 230
205 0 205 0 0 -230z m430 0 l0 -230 -205 0 -205 0 0 230 0 230 205 0 205 0 0
-230z m430 0 l0 -230 -205 0 -205 0 0 230 0 230 205 0 205 0 0 -230z m430 0
l0 -230 -205 0 -205 0 0 230 0 230 205 0 205 0 0 -230z"/>
</g>
</svg>
