<?xml version="1.0" standalone="no"?>
<!DOCTYPE svg PUBLIC "-//W3C//DTD SVG 20010904//EN"
 "http://www.w3.org/TR/2001/REC-SVG-20010904/DTD/svg10.dtd">
<svg version="1.0" xmlns="http://www.w3.org/2000/svg"
 width="410.000000pt" height="454.000000pt" viewBox="0 0 410.000000 454.000000"
 preserveAspectRatio="xMidYMid meet">
<metadata>
Created by potrace 1.13, written by Peter Selinger 2001-2015
</metadata>
<g transform="translate(0.000000,454.000000) scale(0.100000,-0.100000)"
fill="#000000" stroke="none">
<path d="M301 4516 c-6 -7 -10 -24 -8 -37 3 -18 10 -24 28 -24 19 0 25 6 27
29 5 39 -24 59 -47 32z m29 -16 c0 -5 -5 -10 -11 -10 -5 0 -7 5 -4 10 3 6 8
10 11 10 2 0 4 -4 4 -10z"/>
<path d="M732 4518 c-5 -7 -9 -24 -8 -38 1 -19 7 -26 29 -28 25 -3 27 -1 27
31 0 23 -6 37 -16 41 -21 8 -20 8 -32 -6z"/>
<path d="M1150 4520 c0 -5 7 -10 15 -10 18 0 18 -1 5 -34 -7 -20 -6 -26 3 -26
11 0 37 52 37 73 0 4 -13 7 -30 7 -16 0 -30 -4 -30 -10z"/>
<path d="M1590 4516 c-21 -26 -8 -61 23 -64 25 -3 27 -1 25 30 -3 45 -25 61
-48 34z"/>
<path d="M2016 4514 c-10 -27 -7 -34 17 -35 21 -1 21 -1 -3 -9 -22 -6 -23 -8
-7 -15 9 -4 24 -5 32 -1 22 8 18 35 -7 46 l-23 9 23 0 c30 1 28 21 -2 21 -13
0 -27 -7 -30 -16z"/>
<path d="M2458 4505 c-10 -13 -18 -28 -18 -33 0 -12 38 -22 56 -15 16 6 19 23
4 23 -5 0 -10 11 -10 25 0 31 -10 31 -32 0z"/>
<path d="M2882 4518 c-8 -8 -6 -16 10 -30 l21 -18 -22 0 c-12 0 -19 -4 -16
-10 3 -5 17 -10 31 -10 21 0 24 5 24 34 0 22 -6 36 -16 40 -20 8 -18 8 -32 -6z"/>
<path d="M3311 4517 c-15 -19 -2 -30 18 -15 9 7 6 1 -6 -13 -30 -33 -29 -39 7
-39 30 0 41 14 18 23 -10 4 -10 6 0 6 18 1 15 38 -4 45 -21 8 -20 8 -33 -7z"/>
<path d="M3744 4514 c3 -9 6 -27 6 -40 0 -13 5 -24 10 -24 6 0 10 18 10 40 0
30 -4 40 -16 40 -11 0 -14 -5 -10 -16z"/>
<path d="M102 2273 l3 -2168 1943 -3 1942 -2 -2 2167 -3 2168 -1943 3 -1942 2
2 -2167z m428 1917 l0 -230 -205 0 -205 0 0 230 0 230 205 0 205 0 0 -230z
m430 0 l0 -230 -205 0 -205 0 0 230 0 230 205 0 205 0 0 -230z m430 0 l0 -230
-205 0 -205 0 0 230 0 230 205 0 205 0 0 -230z m430 0 l0 -230 -205 0 -205 0
0 230 0 230 205 0 205 0 0 -230z m430 0 l0 -230 -205 0 -205 0 0 230 0 230
205 0 205 0 0 -230z m430 0 l0 -230 -205 0 -205 0 0 230 0 230 205 0 205 0 0
-230z m430 0 l0 -230 -205 0 -205 0 0 230 0 230 205 0 205 0 0 -230z m430 0
l0 -230 -205 0 -205 0 0 230 0 230 205 0 205 0 0 -230z m430 0 l0 -230 -205 0
-205 0 0 230 0 230 205 0 205 0 0 -230z m-3440 -480 l0 -230 -205 0 -205 0 0
230 0 230 205 0 205 0 0 -230z m430 0 l0 -230 -205 0 -205 0 0 230 0 230 205
0 205 0 0 -230z m430 0 l0 -230 -205 0 -205 0 0 230 0 230 205 0 205 0 0 -230z
m430 0 l0 -230 -205 0 -205 0 0 230 0 230 205 0 205 0 0 -230z m430 0 l0 -230
-205 0 -205 0 0 230 0 230 205 0 205 0 0 -230z m430 0 l0 -230 -205 0 -205 0
0 230 0 230 205 0 205 0 0 -230z m430 0 l0 -230 -205 0 -205 0 0 230 0 230
205 0 205 0 0 -230z m430 0 l0 -230 -205 0 -205 0 0 230 0 230 205 0 205 0 0
-230z m430 0 l0 -230 -205 0 -205 0 0 230 0 230 205 0 205 0 0 -230z m-3440
-480 l0 -230 -205 0 -205 0 0 230 0 230 205 0 205 0 0 -230z m430 0 l0 -230
-205 0 -205 0 0 230 0 230 205 0 205 0 0 -230z m430 12 c0 -156 -3 -221 -12
-230 -9 -9 -68 -12 -205 -12 l-193 0 0 230 0 230 205 0 205 0 0 -218z m430
-12 l0 -230 -193 0 c-137 0 -196 3 -205 12 -9 9 -12 74 -12 230 l0 218 205 0
205 0 0 -230z m430 0 l0 -230 -205 0 -205 0 0 230 0 230 205 0 205 0 0 -230z
m430 12 c0 -156 -3 -221 -12 -230 -9 -9 -68 -12 -205 -12 l-193 0 0 230 0 230
205 0 205 0 0 -218z m430 -12 l0 -230 -193 0 c-137 0 -196 3 -205 12 -9 9 -12
74 -12 230 l0 218 205 0 205 0 0 -230z m430 0 l0 -230 -205 0 -205 0 0 230 0
230 205 0 205 0 0 -230z m430 0 l0 -230 -205 0 -205 0 0 230 0 230 205 0 205
0 0 -230z m-3440 -480 l0 -230 -205 0 -205 0 0 230 0 230 205 0 205 0 0 -230z
m430 0 l0 -230 -205 0 -205 0 0 230 0 230 205 0 205 0 0 -230z m418 218 c9 -9
12 -74 12 -230 l0 -218 -205 0 -205 0 0 230 0 230 193 0 c137 0 196 -3 205
-12z m442 -218 l0 -230 -205 0 -205 0 0 218 c0 156 3 221 12 230 9 9 68 12
205 12 l193 0 0 -230z m430 0 l0 -230 -205 0 -205 0 0 230 0 230 205 0 205 0
0 -230z m418 218 c9 -9 12 -74 12 -230 l0 -218 -205 0 -205 0 0 230 0 230 193
0 c137 0 196 -3 205 -12z m442 -218 l0 -230 -205 0 -205 0 0 218 c0 156 3 221
12 230 9 9 68 12 205 12 l193 0 0 -230z m430 0 l0 -230 -205 0 -205 0 0 230 0
230 205 0 205 0 0 -230z m430 0 l0 -230 -205 0 -205 0 0 230 0 230 205 0 205
0 0 -230z m-3440 -480 l0 -230 -205 0 -205 0 0 230 0 230 205 0 205 0 0 -230z
m430 0 l0 -230 -205 0 -205 0 0 230 0 230 205 0 205 0 0 -230z m430 0 l0 -230
-205 0 -205 0 0 230 0 230 205 0 205 0 0 -230z m430 0 l0 -230 -205 0 -205 0
0 230 0 230 205 0 205 0 0 -230z m430 0 l0 -230 -205 0 -205 0 0 230 0 230
205 0 205 0 0 -230z m430 0 l0 -230 -205 0 -205 0 0 230 0 230 205 0 205 0 0
-230z m430 0 l0 -230 -205 0 -205 0 0 230 0 230 205 0 205 0 0 -230z m430 0
l0 -230 -205 0 -205 0 0 230 0 230 205 0 205 0 0 -230z m430 0 l0 -230 -205 0
-205 0 0 230 0 230 205 0 205 0 0 -230z m-3440 -480 l0 -230 -205 0 -205 0 0
230 0 230 205 0 205 0 0 -230z m430 0 l0 -230 -205 0 -205 0 0 230 0 230 205
0 205 0 0 -230z m430 12 c0 -156 -3 -221 -12 -230 -9 -9 -68 -12 -205 -12
l-193 0 0 230 0 230 205 0 205 0 0 -218z m430 -12 l0 -230 -193 0 c-137 0
-196 3 -205 12 -9 9 -12 74 -12 230 l0 218 205 0 205 0 0 -230z m430 0 l0
-230 -205 0 -205 0 0 230 0 230 205 0 205 0 0 -230z m430 12 c0 -156 -3 -221
-12 -230 -9 -9 -68 -12 -205 -12 l-193 0 0 230 0 230 205 0 205 0 0 -218z
m430 -12 l0 -230 -193 0 c-137 0 -196 3 -205 12 -9 9 -12 74 -12 230 l0 218
205 0 205 0 0 -230z m430 0 l0 -230 -205 0 -205 0 0 230 0 230 205 0 205 0 0
-230z m430 0 l0 -230 -205 0 -205 0 0 230 0 230 205 0 205 0 0 -230z m-3440
-480 l0 -230 -205 0 -205 0 0 230 0 230 205 0 205 0 0 -230z m430 0 l0 -230
-205 0 -205 0 0 230 0 230 205 0 205 0 0 -230z m418 218 c9 -9 12 -74 12 -230
l0 -218 -205 0 -205 0 0 230 0 230 193 0 c137 0 196 -3 205 -12z m442 -218 l0
-230 -205 0 -205 0 0 218 c0 156 3 221 12 230 9 9 68 12 205 12 l193 0 0 -230z
m430 0 l0 -230 -205 0 -205 0 0 230 0 230 205 0 205 0 0 -230z m418 218 c9 -9
12 -74 12 -230 l0 -218 -205 0 -205 0 0 230 0 230 193 0 c137 0 196 -3 205
-12z m442 -218 l0 -230 -205 0 -205 0 0 218 c0 156 3 221 12 230 9 9 68 12
205 12 l193 0 0 -230z m430 0 l0 -230 -205 0 -205 0 0 230 0 230 205 0 205 0
0 -230z m430 0 l0 -230 -205 0 -205 0 0 230 0 230 205 0 205 0 0 -230z m-3440
-480 l0 -230 -205 0 -205 0 0 230 0 230 205 0 205 0 0 -230z m430 0 l0 -230
-205 0 -205 0 0 230 0 230 205 0 205 0 0 -230z m430 0 l0 -230 -205 0 -205 0
0 230 0 230 205 0 205 0 0 -230z m430 0 l0 -230 -205 0 -205 0 0 230 0 230
205 0 205 0 0 -230z m430 0 l0 -230 -205 0 -205 0 0 230 0 230 205 0 205 0 0
-230z m430 0 l0 -230 -205 0 -205 0 0 230 0 230 205 0 205 0 0 -230z m430 0
l0 -230 -205 0 -205 0 0 230 0 230 205 0 205 0 0 -230z m430 0 l0 -230 -205 0
-205 0 0 230 0 230 205 0 205 0 0 -230z m430 0 l0 -230 -205 0 -205 0 0 230 0
230 205 0 205 0 0 -230z m-3440 -480 l0 -230 -205 0 -205 0 0 230 0 230 205 0
205 0 0 -230z m430 0 l0 -230 -205 0 -205 0 0 230 0 230 205 0 205 0 0 -230z
m430 0 l0 -230 -205 0 -205 0 0 230 0 230 205 0 205 0 0 -230z m430 0 l0 -230
-205 0 -205 0 0 230 0 230 205 0 205 0 0 -230z m430 0 l0 -230 -205 0 -205 0
0 230 0 230 205 0 205 0 0 -230z m430 0 l0 -230 -205 0 -205 0 0 230 0 230
205 0 205 0 0 -230z m430 0 l0 -230 -205 0 -205 0 0 230 0 230 205 0 205 0 0
-230z m430 0 l0 -230 -205 0 -205 0 0 230 0 230 205 0 205 0 0 -230z m430 0
l0 -230 -205 0 -205 0 0 230 0 230 205 0 205 0 0 -230z"/>
<path d="M4000 4230 c0 -5 20 -10 45 -10 25 0 45 5 45 10 0 6 -20 10 -45 10
-25 0 -45 -4 -45 -10z"/>
<path d="M4010 3770 c0 -5 16 -10 35 -10 19 0 35 5 35 10 0 6 -16 10 -35 10
-19 0 -35 -4 -35 -10z"/>
<path d="M4000 3720 c0 -5 20 -10 45 -10 25 0 45 5 45 10 0 6 -20 10 -45 10
-25 0 -45 -4 -45 -10z"/>
<path d="M4028 3293 c12 -2 30 -2 40 0 9 3 -1 5 -23 4 -22 0 -30 -2 -17 -4z"/>
<path d="M4028 3263 c12 -2 30 -2 40 0 9 3 -1 5 -23 4 -22 0 -30 -2 -17 -4z"/>
<path d="M4023 3233 c15 -2 37 -2 50 0 12 2 0 4 -28 4 -27 0 -38 -2 -22 -4z"/>
<path d="M4000 2783 l0 -38 45 0 45 0 0 38 0 37 -45 0 -45 0 0 -37z m63 -20
c-7 -2 -19 -2 -25 0 -7 3 -2 5 12 5 14 0 19 -2 13 -5z"/>
<path d="M4010 2330 c0 -5 6 -10 13 -10 9 0 9 -2 -1 -8 -7 -5 -10 -16 -6 -25
3 -10 1 -17 -5 -17 -6 0 -11 -4 -11 -10 0 -5 20 -10 45 -10 25 0 45 5 45 10 0
6 -4 10 -10 10 -5 0 -10 9 -10 19 0 11 -6 22 -12 24 -8 3 -6 6 5 6 33 2 17 21
-18 21 -19 0 -35 -4 -35 -10z m50 -50 c0 -5 -4 -10 -10 -10 -5 0 -10 5 -10 10
0 6 5 10 10 10 6 0 10 -4 10 -10z"/>
<path d="M4041 1853 c-1 -7 -10 -13 -21 -13 -22 0 -27 -16 -7 -23 10 -4 10 -7
0 -18 -15 -16 -17 -29 -3 -29 5 0 15 12 23 26 l13 25 12 -25 c6 -14 16 -26 22
-26 14 0 13 13 -2 29 -10 11 -10 14 0 18 19 7 14 23 -7 23 -11 0 -22 6 -24 13
-4 10 -6 10 -6 0z"/>
<path d="M4020 1366 c0 -8 -6 -17 -12 -19 -9 -4 -10 -8 -2 -14 6 -4 13 -16 17
-25 4 -11 17 -18 32 -18 20 0 25 5 24 23 0 12 -3 16 -6 10 -2 -7 -11 -13 -20
-13 -22 0 -9 25 15 28 12 2 22 8 22 14 0 6 -11 8 -25 6 -17 -4 -25 -1 -25 8 0
8 -4 14 -10 14 -5 0 -10 -6 -10 -14z"/>
<path d="M4015 854 c-18 -44 -18 -47 -3 -42 6 2 17 20 24 39 9 24 13 28 13 13
1 -22 26 -62 34 -54 3 3 0 22 -6 43 -16 49 -42 49 -62 1z"/>
<path d="M4030 400 c0 -5 -7 -10 -15 -10 -18 0 -20 -17 -2 -23 9 -3 9 -8 -2
-21 -8 -9 -11 -19 -8 -22 9 -9 27 6 37 30 8 19 9 19 9 -6 1 -21 6 -28 21 -28
13 0 20 7 20 20 0 11 -4 20 -10 20 -5 0 -10 5 -10 11 0 11 -24 39 -34 39 -3 0
-6 -4 -6 -10z"/>
</g>
</svg>
